<svg width="66" height="10" viewBox="0 0 66 10" fill="none" xmlns="http://www.w3.org/2000/svg">
<path d="M2.58195 5.7766V0.498312H0.848394V5.7766C0.848394 8.15701 2.40083 9.63182 4.87179 9.63182C7.32982 9.63182 8.84345 8.15701 8.84345 5.7766V0.498312H7.10989V5.7766C7.10989 7.22554 6.24311 8.07938 4.87179 8.07938C3.50047 8.07938 2.58195 7.21261 2.58195 5.7766ZM17.9992 2.87872L18.6978 1.37803C17.831 0.8088 16.6279 0.420691 15.4247 0.420691C13.3936 0.420691 12.0352 1.42978 12.0352 3.00809C12.0352 6.2294 16.8995 5.15563 16.8995 7.04442C16.8995 7.67834 16.3174 8.04057 15.3471 8.04057C14.3768 8.04057 13.1478 7.53603 12.2164 6.70806L11.4919 8.16994C12.4622 9.03672 13.8723 9.61888 15.3212 9.61888C17.3135 9.61888 18.7883 8.63567 18.7883 6.94093C18.8013 3.69375 13.937 4.68989 13.937 2.85284C13.937 2.29655 14.4674 1.999 15.2824 1.999C15.981 1.999 17.0289 2.29655 17.9992 2.87872ZM21.8535 0.498312V9.5542H28.6454V8.04057H23.5871V5.76366H27.9856V4.25004H23.5871V2.01194H28.4902V0.498312H21.8535ZM43.8326 9.5542H45.6955L41.7756 0.498312H39.9774L36.0058 9.5542H37.804L38.6061 7.63953H43.0305L43.8326 9.5542ZM39.2271 6.15177L40.8312 2.3483L42.4096 6.15177H39.2271ZM51.9321 0.498312H48.2192V9.5542H49.9527V6.88918H51.9321C54.209 6.88918 55.5156 5.68604 55.5156 3.61613C55.5156 1.62383 54.209 0.498312 51.9321 0.498312ZM51.8415 5.36262H49.9527V2.01194H51.8415C53.1352 2.01194 53.8726 2.55529 53.8726 3.66787C53.8726 4.80633 53.1352 5.36262 51.8415 5.36262ZM62.0851 0.498312H58.3722V9.5542H60.1057V6.88918H62.0851C64.362 6.88918 65.6686 5.68604 65.6686 3.61613C65.6686 1.62383 64.362 0.498312 62.0851 0.498312ZM61.9945 5.36262H60.1057V2.01194H61.9945C63.2882 2.01194 64.0256 2.55529 64.0256 3.66787C64.0256 4.80633 63.2882 5.36262 61.9945 5.36262Z" fill="#0ABF53"/>
</svg>
