<svg width="20" height="22" viewBox="0 0 20 22" fill="none" xmlns="http://www.w3.org/2000/svg">
<path d="M18.9782 4.27906C18.9782 5.85312 17.7023 7.12916 16.1283 7.12916C14.5542 7.12916 13.2783 5.85312 13.2783 4.27906C13.2783 2.70515 14.5542 1.42911 16.1283 1.42911C17.7023 1.42911 18.9782 2.70515 18.9782 4.27906Z" fill="#0ABF53"/>
<path d="M16.1287 7.78686C14.1942 7.78686 12.6211 6.2136 12.6211 4.27906C12.6211 2.34468 14.1942 0.771423 16.1287 0.771423C18.0633 0.771423 19.6364 2.34468 19.6364 4.27906C19.6364 6.2136 18.0633 7.78686 16.1287 7.78686ZM16.1287 2.08681C14.9195 2.08681 13.9365 3.07078 13.9365 4.27906C13.9365 5.48751 14.9195 6.47148 16.1287 6.47148C17.338 6.47148 18.321 5.48751 18.321 4.27906C18.321 3.07078 17.338 2.08681 16.1287 2.08681Z" fill="#0ABF53"/>
<path d="M18.9782 18.31C18.9782 19.8839 17.7023 21.16 16.1283 21.16C14.5542 21.16 13.2783 19.8839 13.2783 18.31C13.2783 16.736 14.5542 15.4599 16.1283 15.4599C17.7023 15.4599 18.9782 16.736 18.9782 18.31Z" fill="#0ABF53"/>
<path d="M16.1287 21.8177C14.1942 21.8177 12.6211 20.2444 12.6211 18.31C12.6211 16.3755 14.1942 14.8022 16.1287 14.8022C18.0633 14.8022 19.6364 16.3755 19.6364 18.31C19.6364 20.2444 18.0633 21.8177 16.1287 21.8177ZM16.1287 16.1176C14.9195 16.1176 13.9365 17.1016 13.9365 18.31C13.9365 19.5183 14.9195 20.5023 16.1287 20.5023C17.338 20.5023 18.321 19.5183 18.321 18.31C18.321 17.1016 17.338 16.1176 16.1287 16.1176Z" fill="#0ABF53"/>
<path d="M6.70103 11.2946C6.70103 12.8686 5.42499 14.1445 3.85092 14.1445C2.27702 14.1445 1.00098 12.8686 1.00098 11.2946C1.00098 9.7205 2.27702 8.44461 3.85092 8.44461C5.42499 8.44461 6.70103 9.7205 6.70103 11.2946Z" fill="#0ABF53"/>
<path d="M3.85139 14.8022C1.91701 14.8022 0.34375 13.2291 0.34375 11.2946C0.34375 9.36001 1.91701 7.78691 3.85139 7.78691C5.78593 7.78691 7.35919 9.36001 7.35919 11.2946C7.35919 13.2291 5.78593 14.8022 3.85139 14.8022ZM3.85139 9.1023C2.64214 9.1023 1.65914 10.0861 1.65914 11.2946C1.65914 12.503 2.64214 13.4868 3.85139 13.4868C5.0608 13.4868 6.04381 12.503 6.04381 11.2946C6.04381 10.0861 5.0608 9.1023 3.85139 9.1023Z" fill="#0ABF53"/>
<path d="M5.92174 10.8736C5.6165 10.8736 5.32009 10.7148 5.15872 10.4308C4.91931 10.0107 5.06671 9.4749 5.48676 9.23453L13.6236 4.59568C14.0437 4.3545 14.5795 4.5019 14.8199 4.92356C15.0593 5.34361 14.9119 5.87943 14.4918 6.1198L6.3548 10.7587C6.21799 10.8367 6.06899 10.8736 5.92174 10.8736Z" fill="#0ABF53"/>
<path d="M14.0579 18.1082C13.9104 18.1082 13.7614 18.0713 13.6246 17.9933L5.48762 13.3544C5.06757 13.115 4.92032 12.5792 5.15973 12.1582C5.39818 11.7373 5.9348 11.5891 6.35582 11.8303L14.4928 16.4691C14.9129 16.7086 15.0601 17.2444 14.8207 17.6654C14.6585 17.9494 14.3621 18.1082 14.0579 18.1082Z" fill="#0ABF53"/>
</svg>
