<svg width="212" height="18" viewBox="0 0 212 18" fill="none" xmlns="http://www.w3.org/2000/svg">
<path d="M2.50185 13.5883H0.900606V1.12643H2.50185V6.4697H8.73276V1.12643H10.334V13.5883H8.73276V7.96651H2.50185V13.5883ZM13.4651 10.9775C13.4651 11.3953 13.6391 11.7433 13.9872 12.0218C14.3469 12.3003 14.7647 12.4395 15.2404 12.4395C15.9134 12.4395 16.5109 12.1901 17.0331 11.6911C17.5668 11.1922 17.8337 10.6062 17.8337 9.93325C17.3348 9.53874 16.6386 9.34149 15.7451 9.34149C15.0953 9.34149 14.55 9.49813 14.1091 9.81142C13.6798 10.1247 13.4651 10.5134 13.4651 10.9775ZM15.5363 4.78143C16.7198 4.78143 17.6538 5.10052 18.3384 5.7387C19.023 6.36527 19.3653 7.22971 19.3653 8.33201V13.5883H17.8337V12.4047H17.7641C17.1027 13.3794 16.2209 13.8667 15.1185 13.8667C14.1787 13.8667 13.3897 13.5883 12.7515 13.0313C12.1249 12.4744 11.8116 11.7782 11.8116 10.9427C11.8116 10.0609 12.1423 9.35889 12.8037 8.83675C13.4767 8.31461 14.3701 8.05353 15.484 8.05353C16.4355 8.05353 17.2187 8.22758 17.8337 8.57568V8.21018C17.8337 7.65322 17.6132 7.1833 17.1723 6.80039C16.7314 6.40588 16.215 6.20863 15.6233 6.20863C14.7298 6.20863 14.022 6.58573 13.4999 7.33994L12.0901 6.45229C12.8675 5.33839 14.0162 4.78143 15.5363 4.78143ZM21.1713 5.05991H22.703V6.24344H22.7726C23.0162 5.82572 23.3875 5.47763 23.8865 5.19915C24.397 4.92067 24.925 4.78143 25.4703 4.78143C26.5146 4.78143 27.3152 5.08312 27.8722 5.68648C28.4407 6.27825 28.725 7.12528 28.725 8.22758V13.5883H27.1238V8.33201C27.089 6.93963 26.387 6.24344 25.0178 6.24344C24.3796 6.24344 23.8459 6.50451 23.4166 7.02665C22.9872 7.53719 22.7726 8.15216 22.7726 8.87156V13.5883H21.1713V5.05991ZM34.4336 12.4047C35.2227 12.4047 35.8666 12.1205 36.3656 11.5519C36.8877 10.9833 37.1488 10.2407 37.1488 9.32408C37.1488 8.43064 36.8877 7.69384 36.3656 7.11368C35.855 6.53352 35.2111 6.24344 34.4336 6.24344C33.6678 6.24344 33.0239 6.53352 32.5017 7.11368C31.9796 7.69384 31.7185 8.43064 31.7185 9.32408C31.7185 10.2291 31.9796 10.9659 32.5017 11.5345C33.0239 12.1147 33.6678 12.4047 34.4336 12.4047ZM34.1726 13.8667C33.0587 13.8667 32.1014 13.4258 31.3008 12.544C30.5118 11.6505 30.1173 10.5772 30.1173 9.32408C30.1173 8.07094 30.5118 6.99764 31.3008 6.1042C32.1014 5.22236 33.0587 4.78143 34.1726 4.78143C34.7991 4.78143 35.3677 4.91487 35.8782 5.18175C36.4004 5.44862 36.8007 5.80252 37.0792 6.24344H37.1488L37.0792 5.05991V1.12643H38.6804V13.5883H37.1488V12.4047H37.0792C36.8007 12.8457 36.4004 13.1995 35.8782 13.4664C35.3677 13.7333 34.7991 13.8667 34.1726 13.8667ZM48.6342 12.4047C49.4 12.4047 50.044 12.1147 50.5661 11.5345C51.0883 10.9659 51.3493 10.2291 51.3493 9.32408C51.3493 8.43064 51.0883 7.69384 50.5661 7.11368C50.044 6.53352 49.4 6.24344 48.6342 6.24344C47.8568 6.24344 47.207 6.53352 46.6848 7.11368C46.1743 7.69384 45.919 8.43064 45.919 9.32408C45.919 10.2291 46.1743 10.9717 46.6848 11.5519C47.207 12.1205 47.8568 12.4047 48.6342 12.4047ZM48.8953 13.8667C48.2687 13.8667 47.6943 13.7333 47.1722 13.4664C46.6616 13.1995 46.2671 12.8457 45.9887 12.4047H45.919L45.9887 13.5883V17.3477H44.3874V5.05991H45.919V6.24344H45.9887C46.2671 5.80252 46.6616 5.44862 47.1722 5.18175C47.6943 4.91487 48.2687 4.78143 48.8953 4.78143C50.0208 4.78143 50.9722 5.22236 51.7496 6.1042C52.5503 6.99764 52.9506 8.07094 52.9506 9.32408C52.9506 10.5888 52.5503 11.6621 51.7496 12.544C50.9722 13.4258 50.0208 13.8667 48.8953 13.8667ZM56.4034 2.1185C56.4034 2.43179 56.2931 2.69866 56.0727 2.91912C55.8522 3.13958 55.5854 3.24981 55.2721 3.24981C54.9588 3.24981 54.6919 3.13958 54.4714 2.91912C54.251 2.69866 54.1408 2.43179 54.1408 2.1185C54.1408 1.80522 54.251 1.53834 54.4714 1.31788C54.6919 1.09742 54.9588 0.987192 55.2721 0.987192C55.5854 0.987192 55.8522 1.09742 56.0727 1.31788C56.2931 1.53834 56.4034 1.80522 56.4034 2.1185ZM56.0727 5.05991V13.5883H54.4714V5.05991H56.0727ZM61.9702 13.8667C60.7054 13.8667 59.6554 13.4374 58.8199 12.5788C57.9961 11.6969 57.5842 10.612 57.5842 9.32408C57.5842 8.01292 57.9961 6.92803 58.8199 6.06939C59.6554 5.21075 60.7054 4.78143 61.9702 4.78143C62.8404 4.78143 63.6004 5.0019 64.2502 5.44282C64.9 5.87213 65.3873 6.4697 65.7122 7.23551L64.2502 7.84468C63.7977 6.77718 63.0029 6.24344 61.8658 6.24344C61.1348 6.24344 60.5024 6.53932 59.9686 7.13108C59.4465 7.72284 59.1854 8.45384 59.1854 9.32408C59.1854 10.1943 59.4465 10.9253 59.9686 11.5171C60.5024 12.1089 61.1348 12.4047 61.8658 12.4047C63.0377 12.4047 63.8615 11.871 64.3372 10.8035L65.7644 11.4127C65.4511 12.1785 64.958 12.7818 64.285 13.2228C63.6236 13.6521 62.852 13.8667 61.9702 13.8667ZM74.6663 13.5883H72.7344L70.0714 9.56775L68.7661 10.8557V13.5883H67.1648V1.12643H68.7661V8.80194L72.4559 5.05991H74.5097V5.12953L71.1853 8.43644L74.6663 13.5186V13.5883ZM79.1524 13.8667C77.8992 13.8667 76.8666 13.4374 76.0543 12.5788C75.2421 11.7201 74.836 10.6352 74.836 9.32408C74.836 8.02453 75.2305 6.94543 76.0195 6.08679C76.8085 5.21655 77.818 4.78143 79.048 4.78143C80.3127 4.78143 81.3164 5.19335 82.059 6.01717C82.8132 6.8294 83.1903 7.97231 83.1903 9.44592L83.1729 9.61997H76.472C76.4953 10.4554 76.7737 11.1284 77.3075 11.6389C77.8412 12.1495 78.4794 12.4047 79.222 12.4047C80.2431 12.4047 81.0437 11.8942 81.6239 10.8731L83.0511 11.5693C82.6682 12.2887 82.1344 12.8515 81.4498 13.2576C80.7768 13.6637 80.011 13.8667 79.1524 13.8667ZM76.5939 8.2972H81.4846C81.4382 7.70544 81.1945 7.21811 80.7536 6.8352C80.3243 6.44069 79.7441 6.24344 79.0131 6.24344C78.4098 6.24344 77.8876 6.42909 77.4467 6.80039C77.0174 7.17169 76.7331 7.67063 76.5939 8.2972ZM88.5686 12.4047C89.3577 12.4047 90.0016 12.1205 90.5006 11.5519C91.0227 10.9833 91.2838 10.2407 91.2838 9.32408C91.2838 8.43064 91.0227 7.69384 90.5006 7.11368C89.99 6.53352 89.3461 6.24344 88.5686 6.24344C87.8028 6.24344 87.1589 6.53352 86.6367 7.11368C86.1146 7.69384 85.8535 8.43064 85.8535 9.32408C85.8535 10.2291 86.1146 10.9659 86.6367 11.5345C87.1589 12.1147 87.8028 12.4047 88.5686 12.4047ZM88.3076 13.8667C87.1937 13.8667 86.2364 13.4258 85.4358 12.544C84.6468 11.6505 84.2523 10.5772 84.2523 9.32408C84.2523 8.07094 84.6468 6.99764 85.4358 6.1042C86.2364 5.22236 87.1937 4.78143 88.3076 4.78143C88.9341 4.78143 89.5027 4.91487 90.0132 5.18175C90.5354 5.44862 90.9357 5.80252 91.2142 6.24344H91.2838L91.2142 5.05991V1.12643H92.8154V13.5883H91.2838V12.4047H91.2142C90.9357 12.8457 90.5354 13.1995 90.0132 13.4664C89.5027 13.7333 88.9341 13.8667 88.3076 13.8667ZM102.491 13.8667C101.226 13.8667 100.176 13.4374 99.3404 12.5788C98.5166 11.6969 98.1047 10.612 98.1047 9.32408C98.1047 8.01292 98.5166 6.92803 99.3404 6.06939C100.176 5.21075 101.226 4.78143 102.491 4.78143C103.361 4.78143 104.121 5.0019 104.771 5.44282C105.421 5.87213 105.908 6.4697 106.233 7.23551L104.771 7.84468C104.318 6.77718 103.523 6.24344 102.386 6.24344C101.655 6.24344 101.023 6.53932 100.489 7.13108C99.967 7.72284 99.7059 8.45384 99.7059 9.32408C99.7059 10.1943 99.967 10.9253 100.489 11.5171C101.023 12.1089 101.655 12.4047 102.386 12.4047C103.558 12.4047 104.382 11.871 104.858 10.8035L106.285 11.4127C105.972 12.1785 105.479 12.7818 104.806 13.2228C104.144 13.6521 103.373 13.8667 102.491 13.8667ZM107.113 9.32408C107.113 8.01292 107.525 6.92803 108.349 6.06939C109.184 5.21075 110.234 4.78143 111.499 4.78143C112.764 4.78143 113.808 5.21075 114.632 6.06939C115.467 6.92803 115.885 8.01292 115.885 9.32408C115.885 10.6468 115.467 11.7317 114.632 12.5788C113.808 13.4374 112.764 13.8667 111.499 13.8667C110.234 13.8667 109.184 13.4374 108.349 12.5788C107.525 11.7201 107.113 10.6352 107.113 9.32408ZM108.714 9.32408C108.714 10.2407 108.981 10.9833 109.515 11.5519C110.049 12.1205 110.71 12.4047 111.499 12.4047C112.288 12.4047 112.949 12.1205 113.483 11.5519C114.017 10.9833 114.284 10.2407 114.284 9.32408C114.284 8.41904 114.017 7.68223 113.483 7.11368C112.938 6.53352 112.276 6.24344 111.499 6.24344C110.722 6.24344 110.06 6.53352 109.515 7.11368C108.981 7.68223 108.714 8.41904 108.714 9.32408ZM117.17 5.05991H118.701V6.24344H118.771C119.015 5.82572 119.386 5.47763 119.885 5.19915C120.395 4.92067 120.923 4.78143 121.469 4.78143C122.513 4.78143 123.313 5.08312 123.87 5.68648C124.439 6.27825 124.723 7.12528 124.723 8.22758V13.5883H123.122V8.33201C123.087 6.93963 122.385 6.24344 121.016 6.24344C120.378 6.24344 119.844 6.50451 119.415 7.02665C118.985 7.53719 118.771 8.15216 118.771 8.87156V13.5883H117.17V5.05991ZM129.537 13.7275C128.841 13.7275 128.261 13.5128 127.797 13.0835C127.344 12.6542 127.112 12.0566 127.101 11.2908V6.52191H125.604V5.05991H127.101V2.44919H128.702V5.05991H130.791V6.52191H128.702V10.7687C128.702 11.3372 128.812 11.7259 129.033 11.9348C129.253 12.1321 129.503 12.2307 129.781 12.2307C129.909 12.2307 130.031 12.2191 130.147 12.1959C130.274 12.1611 130.39 12.1205 130.495 12.074L130.999 13.5012C130.582 13.6521 130.094 13.7275 129.537 13.7275ZM136.058 13.8667C134.805 13.8667 133.772 13.4374 132.96 12.5788C132.148 11.7201 131.741 10.6352 131.741 9.32408C131.741 8.02453 132.136 6.94543 132.925 6.08679C133.714 5.21655 134.724 4.78143 135.953 4.78143C137.218 4.78143 138.222 5.19335 138.964 6.01717C139.719 6.8294 140.096 7.97231 140.096 9.44592L140.078 9.61997H133.378C133.401 10.4554 133.679 11.1284 134.213 11.6389C134.747 12.1495 135.385 12.4047 136.127 12.4047C137.149 12.4047 137.949 11.8942 138.529 10.8731L139.957 11.5693C139.574 12.2887 139.04 12.8515 138.355 13.2576C137.682 13.6637 136.917 13.8667 136.058 13.8667ZM133.499 8.2972H138.39C138.344 7.70544 138.1 7.21811 137.659 6.8352C137.23 6.44069 136.65 6.24344 135.919 6.24344C135.315 6.24344 134.793 6.42909 134.352 6.80039C133.923 7.17169 133.639 7.67063 133.499 8.2972ZM141.56 5.05991H143.092V6.24344H143.161C143.405 5.82572 143.776 5.47763 144.275 5.19915C144.786 4.92067 145.314 4.78143 145.859 4.78143C146.903 4.78143 147.704 5.08312 148.261 5.68648C148.83 6.27825 149.114 7.12528 149.114 8.22758V13.5883H147.513V8.33201C147.478 6.93963 146.776 6.24344 145.407 6.24344C144.768 6.24344 144.235 6.50451 143.805 7.02665C143.376 7.53719 143.161 8.15216 143.161 8.87156V13.5883H141.56V5.05991ZM153.928 13.7275C153.232 13.7275 152.652 13.5128 152.187 13.0835C151.735 12.6542 151.503 12.0566 151.491 11.2908V6.52191H149.994V5.05991H151.491V2.44919H153.093V5.05991H155.181V6.52191H153.093V10.7687C153.093 11.3372 153.203 11.7259 153.423 11.9348C153.644 12.1321 153.893 12.2307 154.172 12.2307C154.299 12.2307 154.421 12.2191 154.537 12.1959C154.665 12.1611 154.781 12.1205 154.885 12.074L155.39 13.5012C154.972 13.6521 154.485 13.7275 153.928 13.7275ZM164.122 0.987192C164.702 0.987192 165.178 1.08582 165.549 1.28307L165.114 2.69286C164.836 2.55362 164.522 2.484 164.174 2.484C163.78 2.484 163.455 2.62324 163.2 2.90172C162.956 3.16859 162.834 3.52829 162.834 3.98081V5.05991H165.062V6.52191H162.834V13.5883H161.233V6.52191H159.632V5.05991H161.233V3.82417C161.233 2.97714 161.5 2.29255 162.034 1.77041C162.579 1.24826 163.275 0.987192 164.122 0.987192ZM165.582 9.32408C165.582 8.01292 165.994 6.92803 166.818 6.06939C167.653 5.21075 168.703 4.78143 169.968 4.78143C171.233 4.78143 172.277 5.21075 173.101 6.06939C173.937 6.92803 174.354 8.01292 174.354 9.32408C174.354 10.6468 173.937 11.7317 173.101 12.5788C172.277 13.4374 171.233 13.8667 169.968 13.8667C168.703 13.8667 167.653 13.4374 166.818 12.5788C165.994 11.7201 165.582 10.6352 165.582 9.32408ZM167.183 9.32408C167.183 10.2407 167.45 10.9833 167.984 11.5519C168.518 12.1205 169.179 12.4047 169.968 12.4047C170.757 12.4047 171.419 12.1205 171.952 11.5519C172.486 10.9833 172.753 10.2407 172.753 9.32408C172.753 8.41904 172.486 7.68223 171.952 7.11368C171.407 6.53352 170.746 6.24344 169.968 6.24344C169.191 6.24344 168.529 6.53352 167.984 7.11368C167.45 7.68223 167.183 8.41904 167.183 9.32408ZM177.24 13.5883H175.639V5.05991H177.17V6.45229H177.24C177.402 5.99977 177.733 5.61686 178.232 5.30358C178.743 4.97869 179.242 4.81624 179.729 4.81624C180.193 4.81624 180.588 4.88586 180.912 5.0251L180.425 6.57413C180.228 6.49291 179.915 6.45229 179.485 6.45229C178.882 6.45229 178.354 6.69596 177.901 7.1833C177.461 7.67063 177.24 8.23919 177.24 8.88896V13.5883ZM193.409 5.05991L188.066 17.3477H186.413L188.397 13.0487L184.881 5.05991H186.621L189.162 11.1864H189.197L191.669 5.05991H193.409ZM193.627 9.32408C193.627 8.01292 194.039 6.92803 194.863 6.06939C195.698 5.21075 196.748 4.78143 198.013 4.78143C199.278 4.78143 200.322 5.21075 201.146 6.06939C201.981 6.92803 202.399 8.01292 202.399 9.32408C202.399 10.6468 201.981 11.7317 201.146 12.5788C200.322 13.4374 199.278 13.8667 198.013 13.8667C196.748 13.8667 195.698 13.4374 194.863 12.5788C194.039 11.7201 193.627 10.6352 193.627 9.32408ZM195.228 9.32408C195.228 10.2407 195.495 10.9833 196.029 11.5519C196.563 12.1205 197.224 12.4047 198.013 12.4047C198.802 12.4047 199.463 12.1205 199.997 11.5519C200.531 10.9833 200.798 10.2407 200.798 9.32408C200.798 8.41904 200.531 7.68223 199.997 7.11368C199.452 6.53352 198.79 6.24344 198.013 6.24344C197.236 6.24344 196.574 6.53352 196.029 7.11368C195.495 7.68223 195.228 8.41904 195.228 9.32408ZM211.253 13.5883H209.721V12.4047H209.651C209.408 12.8224 209.031 13.1705 208.52 13.449C208.021 13.7275 207.499 13.8667 206.954 13.8667C205.909 13.8667 205.103 13.5709 204.534 12.9791C203.977 12.3757 203.699 11.5229 203.699 10.4206V5.05991H205.3V10.3162C205.335 11.7085 206.037 12.4047 207.406 12.4047C208.044 12.4047 208.578 12.1495 209.007 11.6389C209.437 11.1168 209.651 10.496 209.651 9.77661V5.05991H211.253V13.5883Z" fill="#FDFDFD"/>
</svg>
