<svg width="20" height="37" viewBox="0 0 20 37" fill="none" xmlns="http://www.w3.org/2000/svg">
<path d="M18.0585 24.5331C17.8653 22.3115 17.0926 20.1864 15.8851 18.3511L4.24551 1.15728C4.00402 0.770905 3.56934 0.529419 3.08637 0.529419H2.21702C1.44427 0.529419 0.816406 1.15728 0.816406 1.93004V14.3907H2.16873C3.95572 14.3907 5.50123 15.4533 6.17739 17.0954L9.36501 25.1127C9.65479 25.8371 9.31671 26.7065 8.54396 26.9963C7.8195 27.2861 6.95015 26.948 6.66037 26.1752L3.56934 18.1579C3.32786 17.6266 2.84489 17.2402 2.21702 17.2402H0.864703V17.8198V28.8316C0.864703 30.7635 1.68576 32.5505 3.13467 33.8062L5.93591 36.221H19.121L18.0585 24.5331Z" fill="#FDFDFD"/>
</svg>
