<svg width="19" height="37" viewBox="0 0 19 37" fill="none" xmlns="http://www.w3.org/2000/svg">
<path d="M17.615 0.529419H16.7456C16.2626 0.529419 15.8763 0.770905 15.5865 1.15728L3.99515 18.3511C2.73942 20.1864 2.01496 22.3115 1.82177 24.5331L0.710938 36.221H13.8961L16.6973 33.8062C18.1462 32.5505 18.9673 30.7635 18.9673 28.8316V17.2402H17.615C17.0354 17.2402 16.5041 17.5783 16.2626 18.1579L13.075 26.1752C12.7852 26.8997 11.9642 27.2861 11.1914 26.9963C10.467 26.7065 10.0806 25.8854 10.3704 25.1127L13.558 17.0954C14.2341 15.4533 15.7797 14.3907 17.5667 14.3907H18.9673V1.93004C18.9673 1.15728 18.3394 0.529419 17.615 0.529419Z" fill="#FDFDFD"/>
</svg>
